<svg width="17" height="16" fill="none" xmlns="http://www.w3.org/2000/svg"><path d="M11.457 8.364H0v-.728h11.457c.204 0 .37.163.37.364 0 .2-.166.364-.37.364z" fill="#fff"/><path d="M8.5 11.273a.374.374 0 01-.262-.106.36.36 0 010-.514L10.934 8 8.24 5.35a.36.36 0 010-.515.374.374 0 01.523 0l2.956 2.91a.36.36 0 010 .514l-2.956 2.909a.374.374 0 01-.262.106z" fill="#fff"/><path d="M8.87 16c-3.441 0-6.522-2.143-7.667-5.333a.362.362 0 01.226-.464.372.372 0 01.471.222c1.041 2.9 3.842 4.848 6.97 4.848 4.075 0 7.39-3.263 7.39-7.273S12.946.727 8.87.727c-3.128 0-5.93 1.949-6.97 4.849a.373.373 0 01-.472.222.362.362 0 01-.225-.464C2.348 2.144 5.429 0 8.87 0 13.352 0 17 3.59 17 8s-3.648 8-8.13 8z" fill="#fff"/></svg>